<svg xmlns="http://www.w3.org/2000/svg" viewBox="0 0 1138 492" width="1138" height="492" font-family="Helvetica, Arial, sans-serif"><rect width="1138" height="492" fill="#ffffff"/><text x="72" y="30" font-size="16" font-weight="bold" fill="#111">Operating-point-dependent dominance</text><text x="72" y="49" font-size="12" fill="#666">Which lever most influences each target — and how that changes with the disease phenotype</text><text x="151.0" y="86" text-anchor="middle" font-size="12" font-weight="bold" fill="#222">Term</text><text x="269.0" y="86" text-anchor="middle" font-size="12" font-weight="bold" fill="#222">Preterm 28wk</text><text x="387.0" y="86" text-anchor="middle" font-size="12" font-weight="bold" fill="#222">Bischoff 25wk</text><text x="505.0" y="86" text-anchor="middle" font-size="12" font-weight="bold" fill="#222">PPHN</text><text x="623.0" y="86" text-anchor="middle" font-size="12" font-weight="bold" fill="#222">CDH (severe)</text><text x="741.0" y="86" text-anchor="middle" font-size="12" font-weight="bold" fill="#222">d-TGA</text><text x="859.0" y="86" text-anchor="middle" font-size="12" font-weight="bold" fill="#222">HLHS</text><text x="82" y="115.0" text-anchor="end" font-size="12" fill="#222">MAP</text><rect x="92" y="96" width="115" height="27" fill="#4e79a7" fill-opacity="0.55" stroke="#111" stroke-width="2"/><text x="149.5" y="115.0" text-anchor="middle" font-size="10" fill="#111">systemic R</text><rect x="210" y="96" width="115" height="27" fill="#4e79a7" fill-opacity="0.55" stroke="#111" stroke-width="2"/><text x="267.5" y="115.0" text-anchor="middle" font-size="10" fill="#111">systemic R</text><rect x="328" y="96" width="115" height="27" fill="#4e79a7" fill-opacity="0.55" stroke="#111" stroke-width="2"/><text x="385.5" y="115.0" text-anchor="middle" font-size="10" fill="#111">systemic R</text><rect x="446" y="96" width="115" height="27" fill="#4e79a7" fill-opacity="0.55" stroke="#111" stroke-width="2"/><text x="503.5" y="115.0" text-anchor="middle" font-size="10" fill="#111">systemic R</text><rect x="564" y="96" width="115" height="27" fill="#4e79a7" fill-opacity="0.55" stroke="#111" stroke-width="2"/><text x="621.5" y="115.0" text-anchor="middle" font-size="10" fill="#111">systemic R</text><rect x="682" y="96" width="115" height="27" fill="#8c8c8c" fill-opacity="0.55" stroke="#fff" stroke-width="1"/><text x="739.5" y="115.0" text-anchor="middle" font-size="10" fill="#111">weight</text><rect x="800" y="96" width="115" height="27" fill="#4e79a7" fill-opacity="0.55" stroke="#111" stroke-width="2"/><text x="857.5" y="115.0" text-anchor="middle" font-size="10" fill="#111">systemic R</text><text x="82" y="145.0" text-anchor="end" font-size="12" fill="#222">mean PAP</text><rect x="92" y="126" width="115" height="27" fill="#e15759" fill-opacity="0.55" stroke="#111" stroke-width="2"/><text x="149.5" y="145.0" text-anchor="middle" font-size="10" fill="#111">pulmonary R</text><rect x="210" y="126" width="115" height="27" fill="#e15759" fill-opacity="0.55" stroke="#111" stroke-width="2"/><text x="267.5" y="145.0" text-anchor="middle" font-size="10" fill="#111">pulmonary R</text><rect x="328" y="126" width="115" height="27" fill="#e15759" fill-opacity="0.55" stroke="#111" stroke-width="2"/><text x="385.5" y="145.0" text-anchor="middle" font-size="10" fill="#111">pulmonary R</text><rect x="446" y="126" width="115" height="27" fill="#8c8c8c" fill-opacity="0.55" stroke="#fff" stroke-width="1"/><text x="503.5" y="145.0" text-anchor="middle" font-size="10" fill="#111">weight</text><rect x="564" y="126" width="115" height="27" fill="#8c8c8c" fill-opacity="0.55" stroke="#fff" stroke-width="1"/><text x="621.5" y="145.0" text-anchor="middle" font-size="10" fill="#111">weight</text><rect x="682" y="126" width="115" height="27" fill="#e15759" fill-opacity="0.55" stroke="#111" stroke-width="2"/><text x="739.5" y="145.0" text-anchor="middle" font-size="10" fill="#111">pulmonary R</text><rect x="800" y="126" width="115" height="27" fill="#8c8c8c" fill-opacity="0.55" stroke="#fff" stroke-width="1"/><text x="857.5" y="145.0" text-anchor="middle" font-size="10" fill="#111">weight</text><text x="82" y="175.0" text-anchor="end" font-size="12" fill="#222">CVP</text><rect x="92" y="156" width="115" height="27" fill="#59a14f" fill-opacity="0.55" stroke="#111" stroke-width="2"/><text x="149.5" y="175.0" text-anchor="middle" font-size="10" fill="#111">venous uvol</text><rect x="210" y="156" width="115" height="27" fill="#59a14f" fill-opacity="0.55" stroke="#111" stroke-width="2"/><text x="267.5" y="175.0" text-anchor="middle" font-size="10" fill="#111">venous uvol</text><rect x="328" y="156" width="115" height="27" fill="#59a14f" fill-opacity="0.55" stroke="#111" stroke-width="2"/><text x="385.5" y="175.0" text-anchor="middle" font-size="10" fill="#111">venous uvol</text><rect x="446" y="156" width="115" height="27" fill="#59a14f" fill-opacity="0.55" stroke="#111" stroke-width="2"/><text x="503.5" y="175.0" text-anchor="middle" font-size="10" fill="#111">venous uvol</text><rect x="564" y="156" width="115" height="27" fill="#59a14f" fill-opacity="0.55" stroke="#111" stroke-width="2"/><text x="621.5" y="175.0" text-anchor="middle" font-size="10" fill="#111">venous uvol</text><rect x="682" y="156" width="115" height="27" fill="#4e79a7" fill-opacity="0.55" stroke="#fff" stroke-width="1"/><text x="739.5" y="175.0" text-anchor="middle" font-size="10" fill="#111">systemic R</text><rect x="800" y="156" width="115" height="27" fill="#59a14f" fill-opacity="0.55" stroke="#111" stroke-width="2"/><text x="857.5" y="175.0" text-anchor="middle" font-size="10" fill="#111">venous uvol</text><text x="82" y="205.0" text-anchor="end" font-size="12" fill="#222">HR</text><rect x="92" y="186" width="115" height="27" fill="#4e79a7" fill-opacity="0.55" stroke="#fff" stroke-width="1"/><text x="149.5" y="205.0" text-anchor="middle" font-size="10" fill="#111">systemic R</text><rect x="210" y="186" width="115" height="27" fill="#4e79a7" fill-opacity="0.55" stroke="#fff" stroke-width="1"/><text x="267.5" y="205.0" text-anchor="middle" font-size="10" fill="#111">systemic R</text><rect x="328" y="186" width="115" height="27" fill="#4e79a7" fill-opacity="0.55" stroke="#fff" stroke-width="1"/><text x="385.5" y="205.0" text-anchor="middle" font-size="10" fill="#111">systemic R</text><rect x="446" y="186" width="115" height="27" fill="#b07aa1" fill-opacity="0.55" stroke="#111" stroke-width="2"/><text x="503.5" y="205.0" text-anchor="middle" font-size="10" fill="#111">HR ref</text><rect x="564" y="186" width="115" height="27" fill="#b07aa1" fill-opacity="0.55" stroke="#111" stroke-width="2"/><text x="621.5" y="205.0" text-anchor="middle" font-size="10" fill="#111">HR ref</text><rect x="682" y="186" width="115" height="27" fill="#b07aa1" fill-opacity="0.55" stroke="#111" stroke-width="2"/><text x="739.5" y="205.0" text-anchor="middle" font-size="10" fill="#111">HR ref</text><rect x="800" y="186" width="115" height="27" fill="#b07aa1" fill-opacity="0.55" stroke="#111" stroke-width="2"/><text x="857.5" y="205.0" text-anchor="middle" font-size="10" fill="#111">HR ref</text><text x="82" y="235.0" text-anchor="end" font-size="12" fill="#222">CO</text><rect x="92" y="216" width="115" height="27" fill="#4e79a7" fill-opacity="0.55" stroke="#fff" stroke-width="1"/><text x="149.5" y="235.0" text-anchor="middle" font-size="10" fill="#111">systemic R</text><rect x="210" y="216" width="115" height="27" fill="#8c8c8c" fill-opacity="0.55" stroke="#fff" stroke-width="1"/><text x="267.5" y="235.0" text-anchor="middle" font-size="10" fill="#111">weight</text><rect x="328" y="216" width="115" height="27" fill="#8c8c8c" fill-opacity="0.55" stroke="#fff" stroke-width="1"/><text x="385.5" y="235.0" text-anchor="middle" font-size="10" fill="#111">weight</text><rect x="446" y="216" width="115" height="27" fill="#8c8c8c" fill-opacity="0.55" stroke="#fff" stroke-width="1"/><text x="503.5" y="235.0" text-anchor="middle" font-size="10" fill="#111">weight</text><rect x="564" y="216" width="115" height="27" fill="#8c8c8c" fill-opacity="0.55" stroke="#fff" stroke-width="1"/><text x="621.5" y="235.0" text-anchor="middle" font-size="10" fill="#111">weight</text><rect x="682" y="216" width="115" height="27" fill="#f4f4f4" fill-opacity="0.55" stroke="#fff" stroke-width="1"/><text x="739.5" y="235.0" text-anchor="middle" font-size="10" fill="#111">—</text><rect x="800" y="216" width="115" height="27" fill="#f4f4f4" fill-opacity="0.55" stroke="#fff" stroke-width="1"/><text x="857.5" y="235.0" text-anchor="middle" font-size="10" fill="#111">—</text><text x="82" y="265.0" text-anchor="end" font-size="12" fill="#222">SpO₂</text><rect x="92" y="246" width="115" height="27" fill="#9c755f" fill-opacity="0.55" stroke="#fff" stroke-width="1"/><text x="149.5" y="265.0" text-anchor="middle" font-size="10" fill="#111">UMA</text><rect x="210" y="246" width="115" height="27" fill="#9c755f" fill-opacity="0.55" stroke="#fff" stroke-width="1"/><text x="267.5" y="265.0" text-anchor="middle" font-size="10" fill="#111">UMA</text><rect x="328" y="246" width="115" height="27" fill="#e15759" fill-opacity="0.55" stroke="#fff" stroke-width="1"/><text x="385.5" y="265.0" text-anchor="middle" font-size="10" fill="#111">pulmonary R</text><rect x="446" y="246" width="115" height="27" fill="#e15759" fill-opacity="0.55" stroke="#fff" stroke-width="1"/><text x="503.5" y="265.0" text-anchor="middle" font-size="10" fill="#111">pulmonary R</text><rect x="564" y="246" width="115" height="27" fill="#e15759" fill-opacity="0.55" stroke="#fff" stroke-width="1"/><text x="621.5" y="265.0" text-anchor="middle" font-size="10" fill="#111">pulmonary R</text><rect x="682" y="246" width="115" height="27" fill="#e15759" fill-opacity="0.55" stroke="#fff" stroke-width="1"/><text x="739.5" y="265.0" text-anchor="middle" font-size="10" fill="#111">pulmonary R</text><rect x="800" y="246" width="115" height="27" fill="#e15759" fill-opacity="0.55" stroke="#fff" stroke-width="1"/><text x="857.5" y="265.0" text-anchor="middle" font-size="10" fill="#111">pulmonary R</text><text x="82" y="295.0" text-anchor="end" font-size="12" fill="#222">PaO₂</text><rect x="92" y="276" width="115" height="27" fill="#9c755f" fill-opacity="0.55" stroke="#fff" stroke-width="1"/><text x="149.5" y="295.0" text-anchor="middle" font-size="10" fill="#111">UMA</text><rect x="210" y="276" width="115" height="27" fill="#9c755f" fill-opacity="0.55" stroke="#fff" stroke-width="1"/><text x="267.5" y="295.0" text-anchor="middle" font-size="10" fill="#111">UMA</text><rect x="328" y="276" width="115" height="27" fill="#e15759" fill-opacity="0.55" stroke="#fff" stroke-width="1"/><text x="385.5" y="295.0" text-anchor="middle" font-size="10" fill="#111">pulmonary R</text><rect x="446" y="276" width="115" height="27" fill="#9c755f" fill-opacity="0.55" stroke="#fff" stroke-width="1"/><text x="503.5" y="295.0" text-anchor="middle" font-size="10" fill="#111">UMA</text><rect x="564" y="276" width="115" height="27" fill="#9c755f" fill-opacity="0.55" stroke="#fff" stroke-width="1"/><text x="621.5" y="295.0" text-anchor="middle" font-size="10" fill="#111">UMA</text><rect x="682" y="276" width="115" height="27" fill="#9c755f" fill-opacity="0.55" stroke="#fff" stroke-width="1"/><text x="739.5" y="295.0" text-anchor="middle" font-size="10" fill="#111">UMA</text><rect x="800" y="276" width="115" height="27" fill="#9c755f" fill-opacity="0.55" stroke="#fff" stroke-width="1"/><text x="857.5" y="295.0" text-anchor="middle" font-size="10" fill="#111">UMA</text><text x="82" y="325.0" text-anchor="end" font-size="12" fill="#222">PaCO₂</text><rect x="92" y="306" width="115" height="27" fill="#edc948" fill-opacity="0.55" stroke="#111" stroke-width="2"/><text x="149.5" y="325.0" text-anchor="middle" font-size="10" fill="#111">vent drive</text><rect x="210" y="306" width="115" height="27" fill="#edc948" fill-opacity="0.55" stroke="#111" stroke-width="2"/><text x="267.5" y="325.0" text-anchor="middle" font-size="10" fill="#111">vent drive</text><rect x="328" y="306" width="115" height="27" fill="#edc948" fill-opacity="0.55" stroke="#111" stroke-width="2"/><text x="385.5" y="325.0" text-anchor="middle" font-size="10" fill="#111">vent drive</text><rect x="446" y="306" width="115" height="27" fill="#9c755f" fill-opacity="0.55" stroke="#fff" stroke-width="1"/><text x="503.5" y="325.0" text-anchor="middle" font-size="10" fill="#111">UMA</text><rect x="564" y="306" width="115" height="27" fill="#9c755f" fill-opacity="0.55" stroke="#fff" stroke-width="1"/><text x="621.5" y="325.0" text-anchor="middle" font-size="10" fill="#111">UMA</text><rect x="682" y="306" width="115" height="27" fill="#9c755f" fill-opacity="0.55" stroke="#fff" stroke-width="1"/><text x="739.5" y="325.0" text-anchor="middle" font-size="10" fill="#111">UMA</text><rect x="800" y="306" width="115" height="27" fill="#9c755f" fill-opacity="0.55" stroke="#fff" stroke-width="1"/><text x="857.5" y="325.0" text-anchor="middle" font-size="10" fill="#111">UMA</text><text x="82" y="355.0" text-anchor="end" font-size="12" fill="#222">BE</text><rect x="92" y="336" width="115" height="27" fill="#9c755f" fill-opacity="0.55" stroke="#111" stroke-width="2"/><text x="149.5" y="355.0" text-anchor="middle" font-size="10" fill="#111">UMA</text><rect x="210" y="336" width="115" height="27" fill="#9c755f" fill-opacity="0.55" stroke="#111" stroke-width="2"/><text x="267.5" y="355.0" text-anchor="middle" font-size="10" fill="#111">UMA</text><rect x="328" y="336" width="115" height="27" fill="#9c755f" fill-opacity="0.55" stroke="#111" stroke-width="2"/><text x="385.5" y="355.0" text-anchor="middle" font-size="10" fill="#111">UMA</text><rect x="446" y="336" width="115" height="27" fill="#9c755f" fill-opacity="0.55" stroke="#111" stroke-width="2"/><text x="503.5" y="355.0" text-anchor="middle" font-size="10" fill="#111">UMA</text><rect x="564" y="336" width="115" height="27" fill="#9c755f" fill-opacity="0.55" stroke="#111" stroke-width="2"/><text x="621.5" y="355.0" text-anchor="middle" font-size="10" fill="#111">UMA</text><rect x="682" y="336" width="115" height="27" fill="#9c755f" fill-opacity="0.55" stroke="#111" stroke-width="2"/><text x="739.5" y="355.0" text-anchor="middle" font-size="10" fill="#111">UMA</text><rect x="800" y="336" width="115" height="27" fill="#9c755f" fill-opacity="0.55" stroke="#111" stroke-width="2"/><text x="857.5" y="355.0" text-anchor="middle" font-size="10" fill="#111">UMA</text><text x="82" y="385.0" text-anchor="end" font-size="12" fill="#222">pH</text><rect x="92" y="366" width="115" height="27" fill="#9c755f" fill-opacity="0.55" stroke="#111" stroke-width="2"/><text x="149.5" y="385.0" text-anchor="middle" font-size="10" fill="#111">UMA</text><rect x="210" y="366" width="115" height="27" fill="#9c755f" fill-opacity="0.55" stroke="#111" stroke-width="2"/><text x="267.5" y="385.0" text-anchor="middle" font-size="10" fill="#111">UMA</text><rect x="328" y="366" width="115" height="27" fill="#9c755f" fill-opacity="0.55" stroke="#111" stroke-width="2"/><text x="385.5" y="385.0" text-anchor="middle" font-size="10" fill="#111">UMA</text><rect x="446" y="366" width="115" height="27" fill="#9c755f" fill-opacity="0.55" stroke="#111" stroke-width="2"/><text x="503.5" y="385.0" text-anchor="middle" font-size="10" fill="#111">UMA</text><rect x="564" y="366" width="115" height="27" fill="#9c755f" fill-opacity="0.55" stroke="#111" stroke-width="2"/><text x="621.5" y="385.0" text-anchor="middle" font-size="10" fill="#111">UMA</text><rect x="682" y="366" width="115" height="27" fill="#9c755f" fill-opacity="0.55" stroke="#111" stroke-width="2"/><text x="739.5" y="385.0" text-anchor="middle" font-size="10" fill="#111">UMA</text><rect x="800" y="366" width="115" height="27" fill="#9c755f" fill-opacity="0.55" stroke="#111" stroke-width="2"/><text x="857.5" y="385.0" text-anchor="middle" font-size="10" fill="#111">UMA</text><rect x="90" y="244" width="826" height="59" fill="none" stroke="#c0392b" stroke-width="2" stroke-dasharray="5 3"/><text x="926" y="272.0" font-size="11" fill="#c0392b">oxygenation lever</text><text x="926" y="300.0" font-size="11" fill="#c0392b">shifts with phenotype</text><rect x="92" y="436" width="14" height="14" fill="#fff" stroke="#111" stroke-width="2"/><text x="112" y="447" font-size="11.5" fill="#333">bold border = calibrator's designated lever locally dominates (one-lever holds)</text><text x="92" y="470" font-size="11" fill="#666">cell = the lever with the largest local (OAT) influence on that target at that operating point.</text></svg>
