<svg xmlns="http://www.w3.org/2000/svg" viewBox="0 0 820 460" width="820" height="460" font-family="Helvetica, Arial, sans-serif"><rect width="820" height="460" fill="#ffffff"/><text x="70" y="26" font-size="16" font-weight="bold" fill="#111">Sensitivity validation of the one-lever design</text><text x="70" y="43" font-size="12" fill="#666">Designated lever per target — term neonate, body weight held fixed (Sobol′, N=512)</text><line x1="70" y1="390.0" x2="610" y2="390.0" stroke="#e5e5e5"/><text x="62" y="394.0" text-anchor="end" font-size="12" fill="#555">0.0</text><line x1="70" y1="334.0" x2="610" y2="334.0" stroke="#e5e5e5"/><text x="62" y="338.0" text-anchor="end" font-size="12" fill="#555">0.2</text><line x1="70" y1="278.0" x2="610" y2="278.0" stroke="#e5e5e5"/><text x="62" y="282.0" text-anchor="end" font-size="12" fill="#555">0.4</text><line x1="70" y1="222.0" x2="610" y2="222.0" stroke="#e5e5e5"/><text x="62" y="226.0" text-anchor="end" font-size="12" fill="#555">0.6</text><line x1="70" y1="166.0" x2="610" y2="166.0" stroke="#e5e5e5"/><text x="62" y="170.0" text-anchor="end" font-size="12" fill="#555">0.8</text><line x1="70" y1="110.0" x2="610" y2="110.0" stroke="#e5e5e5"/><text x="62" y="114.0" text-anchor="end" font-size="12" fill="#555">1.0</text><line x1="70" y1="54.0" x2="610" y2="54.0" stroke="#e5e5e5"/><text x="62" y="58.0" text-anchor="end" font-size="12" fill="#555">1.2</text><line x1="70" y1="110.0" x2="610" y2="110.0" stroke="#999" stroke-dasharray="4 3"/><text x="616" y="114.0" font-size="11" fill="#999">1.0</text><rect x="78.8" y="190.1" width="16.2" height="199.9" fill="#e8a33d" fill-opacity="0.18" stroke="#e8a33d" stroke-width="1"/><rect x="99.0" y="232.6" width="16.2" height="157.4" fill="#e8a33d"/><text x="107.1" y="228.6" text-anchor="middle" font-size="10.5" fill="#333">0.56</text><text x="97.0" y="408.0" text-anchor="middle" font-size="12" fill="#222">MAP</text><text x="97.0" y="422.0" text-anchor="middle" font-size="9" fill="#888">systemic R</text><rect x="132.8" y="140.7" width="16.2" height="249.3" fill="#e8a33d" fill-opacity="0.18" stroke="#e8a33d" stroke-width="1"/><rect x="153.0" y="203.1" width="16.2" height="186.9" fill="#e8a33d"/><text x="161.1" y="199.1" text-anchor="middle" font-size="10.5" fill="#333">0.67</text><text x="151.0" y="408.0" text-anchor="middle" font-size="12" fill="#222">mean PAP</text><text x="151.0" y="422.0" text-anchor="middle" font-size="9" fill="#888">pulmonary R</text><rect x="186.8" y="186.0" width="16.2" height="204.0" fill="#2e7d32" fill-opacity="0.18" stroke="#2e7d32" stroke-width="1"/><rect x="207.0" y="203.2" width="16.2" height="186.8" fill="#2e7d32"/><text x="215.1" y="199.2" text-anchor="middle" font-size="10.5" fill="#333">0.67</text><text x="205.0" y="408.0" text-anchor="middle" font-size="12" fill="#222">CVP</text><text x="205.0" y="422.0" text-anchor="middle" font-size="9" fill="#888">venous uvol</text><rect x="240.8" y="75.6" width="16.2" height="314.4" fill="#c0392b" fill-opacity="0.18" stroke="#c0392b" stroke-width="1"/><rect x="261.0" y="178.3" width="16.2" height="211.7" fill="#c0392b"/><text x="248.9" y="71.6" text-anchor="middle" font-size="12" fill="#c0392b">†</text><text x="269.1" y="174.3" text-anchor="middle" font-size="10.5" fill="#333">0.76</text><text x="259.0" y="408.0" text-anchor="middle" font-size="12" fill="#222">HR</text><text x="259.0" y="422.0" text-anchor="middle" font-size="9" fill="#888">HR ref</text><rect x="294.8" y="86.3" width="16.2" height="303.7" fill="#e8a33d" fill-opacity="0.18" stroke="#e8a33d" stroke-width="1"/><rect x="315.0" y="203.2" width="16.2" height="186.8" fill="#e8a33d"/><text x="302.9" y="82.3" text-anchor="middle" font-size="12" fill="#e8a33d">†</text><text x="323.1" y="199.2" text-anchor="middle" font-size="10.5" fill="#333">0.67</text><text x="313.0" y="408.0" text-anchor="middle" font-size="12" fill="#222">BE</text><text x="313.0" y="422.0" text-anchor="middle" font-size="9" fill="#888">UMA</text><rect x="348.8" y="83.6" width="16.2" height="306.4" fill="#e8a33d" fill-opacity="0.18" stroke="#e8a33d" stroke-width="1"/><rect x="369.0" y="236.4" width="16.2" height="153.6" fill="#e8a33d"/><text x="356.9" y="79.6" text-anchor="middle" font-size="12" fill="#e8a33d">†</text><text x="377.1" y="232.4" text-anchor="middle" font-size="10.5" fill="#333">0.55</text><text x="367.0" y="408.0" text-anchor="middle" font-size="12" fill="#222">pH</text><text x="367.0" y="422.0" text-anchor="middle" font-size="9" fill="#888">UMA</text><rect x="402.8" y="350.0" width="16.2" height="40.0" fill="#c0392b" fill-opacity="0.18" stroke="#c0392b" stroke-width="1"/><rect x="423.0" y="341.9" width="16.2" height="48.1" fill="#c0392b"/><text x="431.1" y="337.9" text-anchor="middle" font-size="10.5" fill="#333">0.17</text><text x="421.0" y="408.0" text-anchor="middle" font-size="12" fill="#222">CO</text><text x="421.0" y="422.0" text-anchor="middle" font-size="9" fill="#888">contractility</text><rect x="456.8" y="354.7" width="16.2" height="35.3" fill="#c0392b" fill-opacity="0.18" stroke="#c0392b" stroke-width="1"/><rect x="477.0" y="390.0" width="16.2" height="0.0" fill="#c0392b"/><text x="485.1" y="386.0" text-anchor="middle" font-size="10.5" fill="#333">-0.03</text><text x="475.0" y="408.0" text-anchor="middle" font-size="12" fill="#222">PaCO₂</text><text x="475.0" y="422.0" text-anchor="middle" font-size="9" fill="#888">vent drive</text><rect x="510.8" y="382.2" width="16.2" height="7.8" fill="#c0392b" fill-opacity="0.18" stroke="#c0392b" stroke-width="1"/><rect x="531.0" y="390.0" width="16.2" height="0.0" fill="#c0392b"/><text x="539.1" y="386.0" text-anchor="middle" font-size="10.5" fill="#333">-0.01</text><text x="529.0" y="408.0" text-anchor="middle" font-size="12" fill="#222">SpO₂</text><text x="529.0" y="422.0" text-anchor="middle" font-size="9" fill="#888">O₂ diffusion</text><rect x="564.8" y="370.0" width="16.2" height="20.0" fill="#c0392b" fill-opacity="0.18" stroke="#c0392b" stroke-width="1"/><rect x="585.0" y="368.9" width="16.2" height="21.1" fill="#c0392b"/><text x="593.1" y="364.9" text-anchor="middle" font-size="10.5" fill="#333">0.08</text><text x="583.0" y="408.0" text-anchor="middle" font-size="12" fill="#222">PaO₂</text><text x="583.0" y="422.0" text-anchor="middle" font-size="9" fill="#888">O₂ diffusion</text><line x1="70" y1="54" x2="70" y2="390" stroke="#333"/><line x1="70" y1="390" x2="610" y2="390" stroke="#333"/><text transform="translate(18,222) rotate(-90)" text-anchor="middle" font-size="13" fill="#333">Sobol index (variance fraction)</text><text x="636" y="60" font-size="12" font-weight="bold" fill="#333">Verdict (colour)</text><rect x="636" y="70" width="13" height="13" fill="#2e7d32"/><text x="655" y="81" font-size="11.5" fill="#333">clean one-lever</text><rect x="636" y="90" width="13" height="13" fill="#e8a33d"/><text x="655" y="101" font-size="11.5" fill="#333">dominant, interacting</text><rect x="636" y="110" width="13" height="13" fill="#c0392b"/><text x="655" y="121" font-size="11.5" fill="#333">dominated (design fails)</text><text x="636" y="148" font-size="12" font-weight="bold" fill="#333">Bars</text><rect x="636" y="156" width="13" height="13" fill="#555"/><text x="655" y="167" font-size="11.5" fill="#333">Sᵢ  first-order</text><rect x="636" y="174" width="13" height="13" fill="#fff" stroke="#555"/><text x="655" y="185" font-size="11.5" fill="#333">S_Tᵢ  total</text><text x="636" y="206" font-size="11" fill="#666">† S_Tᵢ&gt;1: heavy</text><text x="636" y="220" font-size="11" fill="#666">interaction (finite-N)</text></svg>
